<svg width="428" height="101" viewBox="0 0 428 101" fill="none" xmlns="http://www.w3.org/2000/svg">
<path d="M426.427 21.0804C426.427 21.0804 425.039 11.3026 420.763 6.9693C415.376 1.30263 409.323 1.30263 406.49 0.969299C386.665 -0.475145 71.2123 0.969329 71.2123 0.969329H71.1568C71.1568 0.969329 41.3351 0.969329 21.3984 2.41377C18.6218 2.74711 12.5684 2.7471 7.1262 8.41377C2.90565 12.7471 1.51731 22.5249 1.51731 22.5249C1.51731 22.5249 0.0734253 34.0804 0.0734253 45.5804V56.3582C0.0734253 67.8582 1.51731 79.3582 1.51731 79.3582C1.51731 79.3582 2.90565 89.136 7.18176 93.4693C12.5684 99.136 19.6768 98.9693 22.8423 99.5249C34.2268 100.636 71.1568 100.969 71.1568 100.969C71.1568 100.969 386.665 99.4693 406.546 98.0249C409.323 97.6915 415.376 97.6915 420.818 92.0249C425.094 87.6915 426.483 77.9138 426.483 77.9138C426.483 77.9138 427.927 66.4138 427.927 54.9138V44.136C427.871 32.636 426.427 21.0804 426.427 21.0804Z" fill="url(#paint0_linear)"/>
<defs>
<linearGradient id="paint0_linear" x1="71.1561" y1="0.969299" x2="71.1561" y2="100.999" gradientUnits="userSpaceOnUse">
<stop stop-color="#E52D27"/>
<stop offset="1" stop-color="#BF171D"/>
</linearGradient>
</defs>
</svg>
